<svg xmlns="http://www.w3.org/2000/svg" xmlns:xlink="http://www.w3.org/1999/xlink" viewBox="0,0,256,256" width="256px" height="256px"><defs><linearGradient x1="32" y1="8.5" x2="32" y2="59.263" gradientUnits="userSpaceOnUse" id="color-1"><stop offset="0" stop-color="#00b894"></stop><stop offset="1" stop-color="#00cec9"></stop></linearGradient><linearGradient x1="32" y1="11" x2="32" y2="55" gradientUnits="userSpaceOnUse" id="color-2"><stop offset="0" stop-color="#000000"></stop><stop offset="1" stop-color="#00cec9"></stop></linearGradient></defs><g fill="none" fill-rule="nonzero" stroke="none" stroke-width="1" stroke-linecap="butt" stroke-linejoin="miter" stroke-miterlimit="10" stroke-dasharray="" stroke-dashoffset="0" font-family="none" font-weight="none" font-size="none" text-anchor="none" style="mix-blend-mode: normal"><g transform="scale(4,4)"><path d="M56.348,12l-24.348,42l-24.348,-42h18.626l5.722,9.739l5.6,-9.739z" fill="url(#color-1)"></path><path d="M57.214,11.501c-0.179,-0.31 -0.509,-0.501 -0.866,-0.501h-17.748c-0.358,0 -0.688,0.191 -0.867,0.502l-5.74,9.993l-5.851,-10c-0.18,-0.307 -0.508,-0.495 -0.864,-0.495h-17.626c-0.357,0 -0.688,0.191 -0.866,0.501c-0.178,0.31 -0.179,0.691 0.001,1.001l24.348,42c0.178,0.309 0.509,0.498 0.865,0.498c0.356,0 0.687,-0.189 0.865,-0.498l24.348,-42c0.18,-0.31 0.18,-0.691 0.001,-1.001zM32,52.006l-22.612,-39.006h7.307l14.441,24.824c0.179,0.308 0.508,0.497 0.864,0.497c0.001,0 0.001,0 0.002,0c0.356,-0.001 0.686,-0.191 0.864,-0.5l14.32,-24.821h7.426z" fill="url(#color-2)"></path></g></g></svg>