<svg xmlns="http://www.w3.org/2000/svg" version="1.1" xmlns:xlink="http://www.w3.org/1999/xlink" xmlns:svgjs="http://svgjs.dev/svgjs" width="1000" height="1125" viewBox="0 0 1000 1125"><g transform="matrix(1,0,0,1,0,0)"><svg viewBox="0 0 320 360" data-background-color="#0b022d" preserveAspectRatio="xMidYMid meet" height="1125" width="1000" xmlns="http://www.w3.org/2000/svg" xmlns:xlink="http://www.w3.org/1999/xlink"><g id="tight-bounds" transform="matrix(1,0,0,1,0,0)"><svg viewBox="0 0 320 360" height="360" width="320"><g><svg></svg></g><g><svg viewBox="0 0 320 360" height="360" width="320"><g><path xmlns="http://www.w3.org/2000/svg" d="M320 141.95l-19.957-19.957v-28.224l-53.812-53.812h-28.223l-19.958-19.957h-76.1l-19.957 19.957h-28.224l-53.812 53.812v28.224l-19.957 19.957v76.104l19.957 19.958v28.223l53.816 53.808h28.224l19.957 19.957h76.104l19.958-19.957h28.223l53.812-53.812v-28.224l19.949-19.957zM244.374 44.437l51.189 51.189v21.887l-73.076-73.076zM295.563 123.849v112.306l-79.408 79.408h-112.306l-79.412-79.412v-112.302l79.412-79.412h112.306zM123.807 24.48h72.39l15.478 15.477h-103.346zM24.437 95.626l51.189-51.189h21.887l-73.076 73.076zM4.484 216.197v-72.394l15.477-15.478v103.342zM75.626 315.563l-51.189-51.189v-21.887l73.076 73.076zM196.197 335.52h-72.39l-15.478-15.477h103.342zM295.563 264.374l-51.189 51.189h-21.887l73.076-73.076zM315.52 216.197l-15.477 15.478v-103.346l15.477 15.478z" fill="#f7fff7" fill-rule="nonzero" stroke="none" stroke-width="1" stroke-linecap="butt" stroke-linejoin="miter" stroke-miterlimit="10" stroke-dasharray="" stroke-dashoffset="0" font-family="none" font-weight="none" font-size="none" text-anchor="none" style="mix-blend-mode: normal" data-fill-palette-color="tertiary"></path></g><g transform="matrix(1,0,0,1,56,113.92724046140196)"><svg viewBox="0 0 208 132.14551907719607" height="132.14551907719607" width="208"><g><svg viewBox="0 0 208 132.14551907719607" height="132.14551907719607" width="208"><g><svg viewBox="0 0 208 132.14551907719607" height="132.14551907719607" width="208"><g id="textblocktransform"><svg viewBox="0 0 208 132.14551907719607" height="132.14551907719607" width="208" id="textblock"><g><svg viewBox="0 0 208 132.14551907719607" height="132.14551907719607" width="208"><g transform="matrix(1,0,0,1,0,0)"><svg width="208" viewBox="-0.15000000596046448 -35.25 56.35000228881836 35.79999923706055" height="132.14551907719607" data-palette-color="#f7fff7"><path d="M0.4 0.55L-0.15-6.8 3.95-7.05Q5.8-7.15 6.6-7.95 7.4-8.75 7.4-10.5L7.4-10.5 7.4-35.25 16.65-35.25 16.65-10.65Q16.65-5.5 13.9-2.78 11.15-0.05 5.55 0.3L5.55 0.3 0.4 0.55ZM23.05 0L23.05-35.25 37.4-35.25Q43.25-35.25 47.47-33.15 51.7-31.05 53.95-27.08 56.2-23.1 56.2-17.65L56.2-17.65Q56.2-12.15 53.97-8.18 51.75-4.2 47.52-2.1 43.3 0 37.4 0L37.4 0 23.05 0ZM32.25-7.4L36.75-7.4Q41.95-7.4 44.5-9.95 47.05-12.5 47.05-17.65L47.05-17.65Q47.05-22.8 44.5-25.33 41.95-27.85 36.75-27.85L36.75-27.85 32.25-27.85 32.25-7.4Z" opacity="1" transform="matrix(1,0,0,1,0,0)" fill="#f7fff7" class="undefined-text-0" data-fill-palette-color="primary" id="text-0"></path></svg></g></svg></g></svg></g></svg></g></svg></g></svg></g></svg></g><defs></defs></svg><rect width="320" height="360" fill="none" stroke="none" visibility="hidden"></rect></g></svg></g></svg>